<svg width="958" height="267" viewBox="0 0 958 267" fill="none" xmlns="http://www.w3.org/2000/svg">
<path fill-rule="evenodd" clip-rule="evenodd" d="M958 33H634V205H958V33ZM716.477 46.6675V65.2222H692.062C690.891 65.3524 690.174 66.0685 689.914 67.3706V84.3628H712.766V101.55H689.914V180.066H667.844V101.55H657.102V84.3628H667.844V71.6675C667.844 65.8081 668.69 61.0555 670.383 57.4097C673.768 50.118 681.906 46.4722 694.797 46.4722L716.477 46.6675ZM746.945 84.3628V180.066H724.875V84.3628H746.945ZM746.945 49.4019V68.9331H724.875V49.4019H746.945ZM790.5 95.8862C792.323 87.1623 798.378 82.7352 808.664 82.605H817.648C822.076 82.605 825.852 83.0607 828.977 83.9722C837.18 86.5764 841.281 93.6076 841.281 105.066V180.066H819.211V102.917C819.081 101.615 818.299 100.834 816.867 100.574H793.43C791.867 100.574 791.086 101.355 791.086 102.917L791.281 180.066H769.211L769.016 84.3628H788.742L790.5 95.8862ZM908.078 83.9722V48.23H930.344V180.066H910.422L908.664 167.371C906.971 176.746 900.917 181.563 890.5 181.824H881.711C877.284 181.824 873.508 181.368 870.383 180.457C862.18 177.852 858.078 170.821 858.078 159.363V107.41C858.078 101.29 858.99 96.4722 860.812 92.9566C864.198 86.8368 872.076 83.7769 884.445 83.7769L908.078 83.9722ZM905.734 163.855C907.297 163.855 908.078 163.074 908.078 161.511V101.746L882.297 101.55C880.734 101.55 879.953 102.332 879.953 103.894V161.511C879.953 163.074 880.734 163.855 882.297 163.855H905.734Z" fill="white"/>
<path d="M362.633 75.9219C364.326 76.1823 365.237 77.0938 365.367 78.6562V159.32C365.107 161.013 364.195 161.924 362.633 162.055H325.133V75.9219H362.633ZM302.281 181L356.578 181.977C376.109 182.367 386.721 174.424 388.414 158.148C388.544 156.586 388.609 154.958 388.609 153.266V84.7109C388.609 68.0443 381.122 58.6693 366.148 56.5859C363.284 56.1953 360.224 56 356.969 56L302.281 56.9766V181ZM502.672 181L474.742 56.9766L451.695 56.1953C442.581 55.9349 436.331 57.888 432.945 62.0547C430.602 65.0495 428.518 70.1927 426.695 77.4844L399.352 181H420.836L428.258 151.117H473.375L479.82 181H502.672ZM446.227 79.0469C446.878 77.6146 447.659 76.8333 448.57 76.7031H457.164L469.273 131.391H433.141L446.227 79.0469ZM580.602 75.9219C582.034 76.1823 582.815 76.9635 582.945 78.2656V159.711C582.685 161.143 581.904 161.924 580.602 162.055H541.344C539.781 162.055 539 161.273 539 159.711V78.2656C539 76.7031 539.781 75.9219 541.344 75.9219H580.602ZM515.562 155.414C515.562 172.862 524.807 181.977 543.297 182.758C544.208 182.758 545.12 182.758 546.031 182.758H575.914C595.706 181.846 605.862 172.732 606.383 155.414V82.3672C606.122 64.3984 595.966 55.349 575.914 55.2188H546.031C525.849 55.4792 515.693 64.5286 515.562 82.3672V155.414Z" fill="white"/>
<circle cx="80" cy="50" r="43" stroke="white" stroke-width="14"/>
<rect x="53.2173" y="73" width="12" height="69" transform="rotate(50.4674 53.2173 73)" fill="white"/>
<g opacity="0.3">
<circle cx="207.237" cy="129.237" r="43" transform="rotate(75 207.237 129.237)" stroke="white" stroke-width="14"/>
<rect x="168.16" y="109.32" width="12" height="69" transform="rotate(125.467 168.16 109.32)" fill="white"/>
<circle r="43" transform="matrix(-0.258819 0.965926 0.965926 0.258819 75.2372 205.237)" stroke="white" stroke-width="14"/>
<rect width="12" height="69" transform="matrix(0.580239 0.814446 0.814446 -0.580239 104.385 185.32)" fill="white"/>
</g>
</svg>
